<svg xmlns="http://www.w3.org/2000/svg"
  xmlns:xlink="http://www.w3.org/1999/xlink" version="1.1" x="0px"
  y="0px" viewBox="0 0 100 125"
  style="enable-background:new 0 0 100 100;" xml:space="preserve">
  <g>
    <path d="M43.2,45.5L43.2,45.5l0.5-2.9L43.2,45.5z M43.2,45.5l-0.6,3.3L43.2,45.5L43.2,45.5z M41.9,52.7L41.9,52.7l0.7-3.9 L41.9,52.7z M43.2,45.5L43.2,45.5l0.5-2.9L43.2,45.5z M43.2,45.5l-0.6,3.3L43.2,45.5L43.2,45.5z M41.9,52.7L41.9,52.7l0.7-3.9 L41.9,52.7z M43.2,45.5L43.2,45.5l0.5-2.9L43.2,45.5z M43.2,45.5l-0.6,3.3L43.2,45.5L43.2,45.5z M41.9,52.7L41.9,52.7l0.7-3.9 L41.9,52.7z M43.2,45.5L43.2,45.5l0.5-2.9L43.2,45.5z M43.2,45.5l-0.6,3.3L43.2,45.5L43.2,45.5z M41.9,52.7L41.9,52.7l0.7-3.9 L41.9,52.7z M43.2,45.5L43.2,45.5l0.5-2.9L43.2,45.5z M43.2,45.5l-0.6,3.3L43.2,45.5L43.2,45.5z M41.9,52.7L41.9,52.7l0.7-3.9 L41.9,52.7z M43.2,45.5L43.2,45.5l0.5-2.9L43.2,45.5z M43.2,45.5l-0.6,3.3L43.2,45.5L43.2,45.5z M41.9,52.7L41.9,52.7l0.7-3.9 L41.9,52.7z M41.9,52.7L41.9,52.7l0.7-3.9L41.9,52.7z M43.2,45.5l-0.6,3.3L43.2,45.5L43.2,45.5z M43.2,45.5L43.2,45.5l0.5-2.9 L43.2,45.5z M41.9,52.7L41.9,52.7l0.7-3.9L41.9,52.7z M43.2,45.5l-0.6,3.3L43.2,45.5L43.2,45.5z M43.2,45.5L43.2,45.5l0.5-2.9 L43.2,45.5z M41.9,52.7L41.9,52.7l0.7-3.9L41.9,52.7z M43.2,45.5l-0.6,3.3L43.2,45.5L43.2,45.5z M43.2,45.5L43.2,45.5l0.5-2.9 L43.2,45.5z M41.9,52.7L41.9,52.7l0.7-3.9L41.9,52.7z M43.2,45.5l-0.6,3.3L43.2,45.5L43.2,45.5z M43.2,45.5L43.2,45.5l0.5-2.9 L43.2,45.5z M41.9,52.7L41.9,52.7l0.7-3.9L41.9,52.7z M43.2,45.5l-0.6,3.3L43.2,45.5L43.2,45.5z M43.2,45.5L43.2,45.5l0.5-2.9 L43.2,45.5z M41.9,52.7L41.9,52.7l0.7-3.9L41.9,52.7z M43.2,45.5l-0.6,3.3L43.2,45.5L43.2,45.5z M43.2,45.5L43.2,45.5l0.5-2.9 L43.2,45.5z" />
    <path d="M48.4,52.7L48.4,52.7L48.4,52.7L48.4,52.7z M43.9,45.8l0,0.2l0.9-4.9L43.9,45.8z M43.2,45.5L43.2,45.5l0.5-2.9L43.2,45.5z" />
    <path d="M48.4,52.7L48.4,52.7L48.4,52.7L48.4,52.7z M43.9,45.8l0,0.2l0.9-4.9L43.9,45.8z" />
    <g>
      <path d="M43.2,45.5l-0.6,3.3L43.2,45.5L43.2,45.5z" />
    </g>
    <path d="M25.6,10.7l-1.2,1.8L25.6,10.7l0.4-0.7L25.6,10.7z M25.6,10.7l-1.2,1.8L25.6,10.7l0.4-0.7L25.6,10.7z M25.6,10.7l-1.2,1.8 L25.6,10.7l0.4-0.7L25.6,10.7z M25.6,10.7l-1.2,1.8L25.6,10.7l0.4-0.7L25.6,10.7z M25.6,10.7l-1.2,1.8L25.6,10.7l0.4-0.7L25.6,10.7 z M25.6,10.7l-1.2,1.8L25.6,10.7l0.4-0.7L25.6,10.7z M25.6,10.7l-1.2,1.8L25.6,10.7l0.4-0.7L25.6,10.7z M25.6,10.7l-1.2,1.8 L25.6,10.7l0.4-0.7L25.6,10.7z M25.6,10.7l-1.2,1.8L25.6,10.7l0.4-0.7L25.6,10.7z M25.6,10.7l-1.2,1.8L25.6,10.7l0.4-0.7L25.6,10.7 z" />
    <path d="M25.6,10.7L25.6,10.7l0.4-0.7L25.6,10.7z M27.7,7.3l-0.1,0.3L27.7,7.3L27.7,7.3z" />
    <path d="M82.4,32.9l-13.7,3.3l-0.8-0.2l-22.6-8.2l-14.3,7.6l-10.4-5.5l7-22.3l0.1-0.3l-0.5-0.4L20.9,2l-0.3-0.2l-0.6,0.4L11.3,8 l5-0.7l6.9,2.3l0.9,2.1l-9.6,14.8l-0.4,0.6l0.2,0.3l7.8,13.1l7.4,13h11l5.8,9.8L24.9,70l-0.5,0.1l-0.2,0.8l-3.1,10.8l7.7-6.4 l-3.4-4.4l23.9-2.2l0.6-0.1L50,68l-1.4-13.9l14.1,17.7l10.4,15.7l0.5,10.7l5.2-9.5l-5.1-1.7l-6.4-17.7l0-0.1l-5-3l-3-15.2l8-2.4 l0.8-0.2l5.1-1.5L71.9,44l7.7,2l0.3,0.1l0.5-0.5l8.3-7.6L82.4,32.9z M66.7,69.9L72,84.5l-8.6-13.1l-0.8-4L66.7,69.9z M14.6,6.7 l5.8-4L20.9,4l-3.2,2.3L14.6,6.7z M18.2,7.1L22,6.5l0.9,2.1L18.2,7.1z M22.2,3.9l4.6,3.6l-1.1,1.8L22.2,3.9z M24.4,12.6l1.2-1.8 l0.4-0.7L20,29.5L15.2,27L24.4,12.6z M16,28.7l11.2,8.7l-4.6,2.4L16,28.7z M30,52.7l-7-12.2l4.8-2.6l0.8-0.4l2.4-1.3L44,41 l-0.1,0.5l-0.2,1.1l-0.5,3l0,0l-0.6,3.3l-0.7,3.9H30z M49,66.4l-2-3.3l-5.6-9.6h6.3L49,66.4z M61.4,65.9l0.9,4.2L49.1,53.5 l-0.6-0.8h-0.1l0-0.1v0l-4.7-5.9l0.1-0.7l0-0.2l0.9-4.6l12.4,3.9l1.1,5.6l0.2,0.8L61.4,65.9z M60.1,41.3l-2.6,3.1l-12.8-4l0,0 L32,35.8l13.4-7.1L60.1,34V41.3z M72.1,46.6L67.5,48h0l-6.6-6.8v-6.9l7.5,2.7L72.1,46.6z M79.7,45.1l-10.2-8.2l12.7-3.1l5.2,4.2 L79.7,45.1z" />
  </g>
  <text x="0" y="115" fill="#ddd" font-size="4px"
    font-family="'Helvetica Neue', Helvetica, Arial-Unicode, Arial, Sans-serif">
    image by Jose Rivera from the Noun Project</text>
</svg>
